<svg width="52" height="72" viewBox="0 0 52 72" fill="none" xmlns="http://www.w3.org/2000/svg">
<g filter="url(#filter0_d_144_2063)">
<path d="M11.2803 42.236C11.2803 44.9951 9.05034 47.225 6.29128 47.225C3.53223 47.225 1.30231 44.9951 1.30231 42.236C1.30231 39.477 3.53223 37.2471 6.29128 37.2471H11.2803V42.236ZM13.7747 42.236C13.7747 39.477 16.0047 37.2471 18.7637 37.2471C21.5228 37.2471 23.7527 39.477 23.7527 42.236V54.7085C23.7527 57.4675 21.5228 59.6975 18.7637 59.6975C16.0047 59.6975 13.7747 57.4675 13.7747 54.7085V42.236Z" fill="#FFC700"/>
<path d="M11.2803 42.236C11.2803 44.9951 9.05034 47.225 6.29128 47.225C3.53223 47.225 1.30231 44.9951 1.30231 42.236C1.30231 39.477 3.53223 37.2471 6.29128 37.2471H11.2803V42.236ZM13.7747 42.236C13.7747 39.477 16.0047 37.2471 18.7637 37.2471C21.5228 37.2471 23.7527 39.477 23.7527 42.236V54.7085C23.7527 57.4675 21.5228 59.6975 18.7637 59.6975C16.0047 59.6975 13.7747 57.4675 13.7747 54.7085V42.236Z" stroke="black" stroke-width="2.11765"/>
</g>
<g filter="url(#filter1_d_144_2063)">
<path d="M18.7637 22.2045C16.0047 22.2045 13.7748 19.9746 13.7748 17.2155C13.7748 14.4565 16.0047 12.2266 18.7637 12.2266C21.5228 12.2266 23.7527 14.4565 23.7527 17.2155V22.2045H18.7637ZM18.7637 24.7368C21.5228 24.7368 23.7527 26.9667 23.7527 29.7258C23.7527 32.4848 21.5228 34.7148 18.7637 34.7148H6.2535C3.49445 34.7148 1.26453 32.4848 1.26453 29.7258C1.26453 26.9667 3.49445 24.7368 6.2535 24.7368H18.7637Z" fill="#69D3FA"/>
<path d="M18.7637 22.2045C16.0047 22.2045 13.7748 19.9746 13.7748 17.2155C13.7748 14.4565 16.0047 12.2266 18.7637 12.2266C21.5228 12.2266 23.7527 14.4565 23.7527 17.2155V22.2045H18.7637ZM18.7637 24.7368C21.5228 24.7368 23.7527 26.9667 23.7527 29.7258C23.7527 32.4848 21.5228 34.7148 18.7637 34.7148H6.2535C3.49445 34.7148 1.26453 32.4848 1.26453 29.7258C1.26453 26.9667 3.49445 24.7368 6.2535 24.7368H18.7637Z" stroke="black" stroke-width="2.11765"/>
</g>
<g filter="url(#filter2_d_144_2063)">
<path d="M38.7574 29.7258C38.7574 26.9667 40.9874 24.7368 43.7464 24.7368C46.5055 24.7368 48.7354 26.9667 48.7354 29.7258C48.7354 32.4848 46.5055 34.7148 43.7464 34.7148H38.7574V29.7258ZM36.263 29.7258C36.263 32.4848 34.033 34.7148 31.274 34.7148C28.5149 34.7148 26.285 32.4848 26.285 29.7258V17.2155C26.285 14.4565 28.5149 12.2266 31.274 12.2266C34.033 12.2266 36.263 14.4565 36.263 17.2155V29.7258Z" fill="#69D3FA"/>
<path d="M38.7574 29.7258C38.7574 26.9667 40.9874 24.7368 43.7464 24.7368C46.5055 24.7368 48.7354 26.9667 48.7354 29.7258C48.7354 32.4848 46.5055 34.7148 43.7464 34.7148H38.7574V29.7258ZM36.263 29.7258C36.263 32.4848 34.033 34.7148 31.274 34.7148C28.5149 34.7148 26.285 32.4848 26.285 29.7258V17.2155C26.285 14.4565 28.5149 12.2266 31.274 12.2266C34.033 12.2266 36.263 14.4565 36.263 17.2155V29.7258Z" stroke="black" stroke-width="2.11765"/>
</g>
<g filter="url(#filter3_d_144_2063)">
<path d="M31.274 49.7195C34.033 49.7195 36.263 51.9494 36.263 54.7085C36.263 57.4675 34.033 59.6975 31.274 59.6975C28.5149 59.6975 26.285 57.4675 26.285 54.7085V49.7195H31.274ZM31.274 47.225C28.5149 47.225 26.285 44.9951 26.285 42.236C26.285 39.477 28.5149 37.2471 31.274 37.2471H43.7842C46.5433 37.2471 48.7732 39.477 48.7732 42.236C48.7732 44.9951 46.5433 47.225 43.7842 47.225H31.274Z" fill="#FFC700"/>
<path d="M31.274 49.7195C34.033 49.7195 36.263 51.9494 36.263 54.7085C36.263 57.4675 34.033 59.6975 31.274 59.6975C28.5149 59.6975 26.285 57.4675 26.285 54.7085V49.7195H31.274ZM31.274 47.225C28.5149 47.225 26.285 44.9951 26.285 42.236C26.285 39.477 28.5149 37.2471 31.274 37.2471H43.7842C46.5433 37.2471 48.7732 39.477 48.7732 42.236C48.7732 44.9951 46.5433 47.225 43.7842 47.225H31.274Z" stroke="black" stroke-width="2.11765"/>
</g>
<defs>
<filter id="filter0_d_144_2063" x="0.243469" y="36.1882" width="25.9798" height="25.9799" filterUnits="userSpaceOnUse" color-interpolation-filters="sRGB">
<feFlood flood-opacity="0" result="BackgroundImageFix"/>
<feColorMatrix in="SourceAlpha" type="matrix" values="0 0 0 0 0 0 0 0 0 0 0 0 0 0 0 0 0 0 127 0" result="hardAlpha"/>
<feOffset dx="1.41176" dy="1.41176"/>
<feComposite in2="hardAlpha" operator="out"/>
<feColorMatrix type="matrix" values="0 0 0 0 0 0 0 0 0 0 0 0 0 0 0 0 0 0 1 0"/>
<feBlend mode="normal" in2="BackgroundImageFix" result="effect1_dropShadow_144_2063"/>
<feBlend mode="normal" in="SourceGraphic" in2="effect1_dropShadow_144_2063" result="shape"/>
</filter>
<filter id="filter1_d_144_2063" x="0.205688" y="11.1677" width="26.0176" height="26.0177" filterUnits="userSpaceOnUse" color-interpolation-filters="sRGB">
<feFlood flood-opacity="0" result="BackgroundImageFix"/>
<feColorMatrix in="SourceAlpha" type="matrix" values="0 0 0 0 0 0 0 0 0 0 0 0 0 0 0 0 0 0 127 0" result="hardAlpha"/>
<feOffset dx="1.41176" dy="1.41176"/>
<feComposite in2="hardAlpha" operator="out"/>
<feColorMatrix type="matrix" values="0 0 0 0 0 0 0 0 0 0 0 0 0 0 0 0 0 0 1 0"/>
<feBlend mode="normal" in2="BackgroundImageFix" result="effect1_dropShadow_144_2063"/>
<feBlend mode="normal" in="SourceGraphic" in2="effect1_dropShadow_144_2063" result="shape"/>
</filter>
<filter id="filter2_d_144_2063" x="25.2262" y="11.1677" width="25.9798" height="26.0177" filterUnits="userSpaceOnUse" color-interpolation-filters="sRGB">
<feFlood flood-opacity="0" result="BackgroundImageFix"/>
<feColorMatrix in="SourceAlpha" type="matrix" values="0 0 0 0 0 0 0 0 0 0 0 0 0 0 0 0 0 0 127 0" result="hardAlpha"/>
<feOffset dx="1.41176" dy="1.41176"/>
<feComposite in2="hardAlpha" operator="out"/>
<feColorMatrix type="matrix" values="0 0 0 0 0 0 0 0 0 0 0 0 0 0 0 0 0 0 1 0"/>
<feBlend mode="normal" in2="BackgroundImageFix" result="effect1_dropShadow_144_2063"/>
<feBlend mode="normal" in="SourceGraphic" in2="effect1_dropShadow_144_2063" result="shape"/>
</filter>
<filter id="filter3_d_144_2063" x="25.2262" y="36.1882" width="26.0176" height="25.9799" filterUnits="userSpaceOnUse" color-interpolation-filters="sRGB">
<feFlood flood-opacity="0" result="BackgroundImageFix"/>
<feColorMatrix in="SourceAlpha" type="matrix" values="0 0 0 0 0 0 0 0 0 0 0 0 0 0 0 0 0 0 127 0" result="hardAlpha"/>
<feOffset dx="1.41176" dy="1.41176"/>
<feComposite in2="hardAlpha" operator="out"/>
<feColorMatrix type="matrix" values="0 0 0 0 0 0 0 0 0 0 0 0 0 0 0 0 0 0 1 0"/>
<feBlend mode="normal" in2="BackgroundImageFix" result="effect1_dropShadow_144_2063"/>
<feBlend mode="normal" in="SourceGraphic" in2="effect1_dropShadow_144_2063" result="shape"/>
</filter>
</defs>
</svg>
