<svg width="138" height="44" viewBox="0 0 138 44" fill="none" xmlns="http://www.w3.org/2000/svg">
<path d="M29.6146 43.42H33.2826C45.1266 43.42 47.5066 39.836 47.5066 36.14V35.748C47.5066 31.52 44.6506 29.56 36.5306 29.336L32.3306 29.224C29.1106 29.14 28.2986 28.748 28.2986 27.964V27.908C28.2986 27.208 28.8026 26.816 31.3226 26.816C34.0666 26.816 34.4586 27.824 34.5146 28.496H46.7226V28.356C46.7226 24.772 44.1186 21.804 32.9466 21.804H29.3906C19.3106 21.804 16.1746 24.212 16.1746 28.132V28.384C16.1746 31.66 17.9666 34.712 26.5346 34.992L30.9306 35.132C34.5146 35.244 34.7946 35.944 34.7946 36.616V36.7C34.7946 37.456 34.0946 38.156 31.6026 38.156C28.6626 38.156 28.3266 36.812 28.2986 35.916H15.8386V36.14C15.8386 38.828 16.9866 43.42 29.6146 43.42Z" fill="black"/>
<path d="M58.5574 22.168H48.3654V43H58.5574V22.168Z" fill="black"/>
<path d="M73.6805 36.98C73.6805 38.156 72.7565 39.164 71.0205 39.164C69.7045 39.164 69.3405 38.464 69.3405 37.932V37.904C69.3405 37.316 69.7325 37.036 70.4325 36.84L73.6805 35.972V36.98ZM73.7645 41.096C73.9605 42.216 74.7445 43 76.3125 43H85.0765V38.044H84.2085C83.9285 38.044 83.8165 37.876 83.8165 37.568V32.416C83.8165 30.652 83.0885 27.572 72.3365 27.572H70.7405C60.4925 27.572 59.8205 30.484 59.8205 32.556V32.892H69.2845C69.3125 32.528 69.3685 31.66 71.5805 31.66H71.6365C73.3445 31.66 73.7085 32.136 73.7085 32.612V32.64C73.7085 32.948 73.5965 33.2 73.0365 33.256L65.1125 33.9C60.6605 34.264 59.4565 35.944 59.4565 38.016V38.576C59.4565 40.872 61.3045 43.28 66.3445 43.28H66.5125C70.7965 43.28 73.0085 41.796 73.7645 41.096Z" fill="black"/>
<path d="M99.521 43.42C111.057 43.42 111.533 38.072 111.533 36.168V36.084H101.201C101.173 36.588 100.837 38.66 98.541 38.66H98.401C95.993 38.66 95.657 36.784 95.657 35.272V35.244C95.657 33.872 95.993 32.192 98.401 32.192H98.541C100.837 32.192 101.173 34.068 101.201 34.572H111.533V34.488C111.533 32.388 110.777 27.516 99.549 27.516H97.533C85.801 27.516 85.325 32.528 85.325 35.188V35.58C85.325 38.296 85.801 43.42 97.561 43.42H99.521Z" fill="black"/>
<path d="M122.596 43V36.588L126.376 43H137.576L132.396 34.208L136.624 27.936H125.928L122.596 33.396V22.168H112.404V43H122.596Z" fill="black"/>
<mask id="mask0_2326_659" style="mask-type:alpha" maskUnits="userSpaceOnUse" x="0" y="0" width="25" height="25">
<path d="M5.59254 0.456224L24.5438 5.59253L19.4075 24.5438L0.456238 19.4075L5.59254 0.456224Z" fill="#D9D9D9" stroke="#3BB3BD" stroke-width="0.165"/>
</mask>
<g mask="url(#mask0_2326_659)">
<path d="M14.5019 42.9593C4.38722 40.218 -1.59006 29.7961 1.15129 19.6814C3.89265 9.5667 14.3145 3.58943 24.4292 6.33078C34.5439 9.07213 40.5212 19.494 37.7798 29.6087C35.0385 39.7234 24.6166 45.7007 14.5019 42.9593Z" stroke="black" stroke-width="1.65"/>
<path d="M15.8607 37.9465C8.51434 35.9554 4.17304 28.386 6.16409 21.0397C8.15513 13.6934 15.7246 9.35209 23.0709 11.3431C30.4172 13.3342 34.7585 20.9036 32.7674 28.2499C30.7764 35.5962 23.207 39.9375 15.8607 37.9465Z" stroke="black" stroke-width="1.65"/>
<path d="M17.219 32.934C12.641 31.6933 9.93571 26.9763 11.1765 22.3984C12.4172 17.8204 17.1342 15.1151 21.7121 16.3559C26.29 17.5966 28.9953 22.3136 27.7546 26.8915C26.5139 31.4694 21.7969 34.1747 17.219 32.934Z" stroke="black" stroke-width="1.65"/>
</g>
</svg>
