<svg width="86" height="86" viewBox="0 0 86 86" fill="none" xmlns="http://www.w3.org/2000/svg">
<path d="M54.9293 2.52877L54.9302 2.52904C58.0156 3.43791 59.7807 6.67626 58.8701 9.7631L54.9117 23.2097L54.9117 23.2099C52.2838 32.1335 57.3874 41.4968 66.3117 44.1244L66.3119 44.1245L79.7583 48.0852L79.7594 48.0855L79.3355 49.5244C81.6279 50.1978 82.9377 52.6007 82.2614 54.8922L54.9293 2.52877ZM54.9293 2.52877C51.8431 1.6218 48.6061 3.38503 47.6977 6.47107C47.6977 6.47116 47.6977 6.47124 47.6977 6.47133L43.7372 19.9195L45.1761 20.3433L43.7372 19.9195C41.1093 28.8434 31.7459 33.947 22.8226 31.3196L9.3746 27.3601C6.28887 26.4515 3.05082 28.2165 2.14227 31.3022C1.23371 34.388 2.99869 37.626 6.08442 38.5346L19.5324 42.4941C28.4557 45.1215 33.5595 54.4847 30.9324 63.4087C30.9324 63.4087 30.9324 63.4088 30.9324 63.4088L26.9723 76.8557L26.9721 76.8565C26.0649 79.9433 27.8289 83.1795 30.9148 84.0898L30.9157 84.0901C34.0013 84.9981 37.2396 83.233 38.147 80.1452L42.1069 66.699L42.1069 66.6989C44.734 57.775 54.0972 52.6713 63.0215 55.2989L63.0217 55.299L76.469 59.2567L76.4701 59.2571L76.8936 57.8181L54.9293 2.52877Z" fill="#FFC700" stroke="black" stroke-width="3"/>
</svg>
