<svg width="50" height="50" viewBox="0 0 50 50" fill="none" xmlns="http://www.w3.org/2000/svg">
<path d="M11.2804 31.2362C11.2804 33.9952 9.05052 36.2251 6.29147 36.2251C3.53241 36.2251 1.30249 33.9952 1.30249 31.2362C1.30249 28.4771 3.53241 26.2472 6.29147 26.2472H11.2804V31.2362ZM13.7749 31.2362C13.7749 28.4771 16.0049 26.2472 18.7639 26.2472C21.523 26.2472 23.7529 28.4771 23.7529 31.2362V43.7086C23.7529 46.4677 21.523 48.6976 18.7639 48.6976C16.0049 48.6976 13.7749 46.4677 13.7749 43.7086V31.2362Z" fill="#E01E5A" stroke="black"/>
<path d="M18.7639 11.2047C16.0048 11.2047 13.7749 8.97478 13.7749 6.21572C13.7749 3.45667 16.0048 1.22675 18.7639 1.22675C21.5229 1.22675 23.7528 3.45667 23.7528 6.21572V11.2047H18.7639ZM18.7639 13.737C21.5229 13.737 23.7528 15.9669 23.7528 18.726C23.7528 21.485 21.5229 23.7149 18.7639 23.7149H6.25362C3.49457 23.7149 1.26465 21.485 1.26465 18.726C1.26465 15.9669 3.49457 13.737 6.25362 13.737H18.7639Z" fill="#36C5F0" stroke="black"/>
<path d="M38.7576 18.726C38.7576 15.9669 40.9875 13.737 43.7466 13.737C46.5056 13.737 48.7355 15.9669 48.7355 18.726C48.7355 21.485 46.5056 23.7149 43.7466 23.7149H38.7576V18.726ZM36.2631 18.726C36.2631 21.485 34.0332 23.7149 31.2741 23.7149C28.5151 23.7149 26.2852 21.485 26.2852 18.726V6.21572C26.2852 3.45667 28.5151 1.22675 31.2741 1.22675C34.0332 1.22675 36.2631 3.45667 36.2631 6.21572V18.726Z" fill="#2EB67D" stroke="black"/>
<path d="M31.2741 38.7196C34.0332 38.7196 36.2631 40.9496 36.2631 43.7086C36.2631 46.4677 34.0332 48.6976 31.2741 48.6976C28.5151 48.6976 26.2852 46.4677 26.2852 43.7086V38.7196H31.2741ZM31.2741 36.2251C28.5151 36.2251 26.2852 33.9952 26.2852 31.2362C26.2852 28.4771 28.5151 26.2472 31.2741 26.2472H43.7844C46.5434 26.2472 48.7733 28.4771 48.7733 31.2362C48.7733 33.9952 46.5434 36.2251 43.7844 36.2251H31.2741Z" fill="#ECB22E" stroke="black"/>
</svg>
